<?xml version="1.0" encoding="utf-8"?>
<svg xmlns="http://www.w3.org/2000/svg"
	xmlns:xlink="http://www.w3.org/1999/xlink"
	width="501px" height="398px">
<clipPath id="clip0">
<use xlink:href="#symbol0"/>
</clipPath>
<clipPath id="clip1">
<use xlink:href="#symbol1"/>
</clipPath>
<clipPath id="clip2">
<use xlink:href="#symbol1"/>
</clipPath>
<defs>
<rect id="symbol0" x="0.00" y="0.00" width="501.00" height="398.00" rx="5.00"/>
<rect id="symbol1" x="0.00" y="0.00" width="501.00" height="398.00" rx="5.00"/>
</defs>
<g>
<use xlink:href="#symbol0" fill="rgb(255,255,255)"/>
<use clip-path="url(#clip0)" xlink:href="#symbol0" fill="none" stroke="rgb(231,235,239)" stroke-width="6.00px"/>
</g>
<g>
<g>
<use xlink:href="#symbol1" fill="rgb(255,255,255)"/>
<rect clip-path="url(#clip1)" x="-9.00" y="-2.00" width="668.00" height="57.00" fill="rgb(231,235,239)"/>
</g>
<use clip-path="url(#clip2)" xlink:href="#symbol1" fill="none" stroke="rgb(231,235,239)" stroke-width="6.00px"/>
</g>
<ellipse fill="rgb(251,81,83)" cx="25.00" cy="26.50" rx="7.00" ry="6.50"/>
<circle fill="rgb(251,173,81)" cx="49.50" cy="26.50" r="6.50"/>
<ellipse fill="rgb(101,179,77)" cx="74.00" cy="26.50" rx="7.00" ry="6.50"/>
<path fill="rgb(255,255,255)" fill-rule="evenodd" d="M432.98 42.66 C432.98 42.66 108.37 42.66 108.37 42.66 C105.67 42.66 103.48 40.47 103.48 37.77 C103.48 37.77 103.48 36.14 103.48 36.14 C103.48 36.14 103.48 18.23 103.48 18.23 C103.48 18.23 103.48 16.60 103.48 16.60 C103.48 13.90 105.67 11.71 108.37 11.71 C108.37 11.71 432.98 11.71 432.98 11.71 C435.68 11.71 437.86 13.90 437.86 16.60 C437.86 16.60 437.86 18.23 437.86 18.23 C437.86 18.23 437.86 36.14 437.86 36.14 C437.86 36.14 437.86 37.77 437.86 37.77 C437.86 40.47 435.68 42.66 432.98 42.66 Z"/>
<g>
<path fill="rgb(255,255,255)" fill-rule="evenodd" d="M457.86 33.90 C457.86 33.90 477.16 33.90 477.16 33.90 C478.21 33.90 479.07 34.83 479.07 35.97 C479.07 37.11 478.21 38.03 477.16 38.03 C477.16 38.03 457.86 38.03 457.86 38.03 C456.81 38.03 455.96 37.11 455.96 35.97 C455.96 34.83 456.81 33.90 457.86 33.90 Z"/>
<path fill="rgb(255,255,255)" fill-rule="evenodd" d="M457.86 25.95 C457.86 25.95 477.16 25.95 477.16 25.95 C478.21 25.95 479.07 26.84 479.07 27.94 C479.07 29.03 478.21 29.92 477.16 29.92 C477.16 29.92 457.86 29.92 457.86 29.92 C456.81 29.92 455.96 29.03 455.96 27.94 C455.96 26.84 456.81 25.95 457.86 25.95 Z"/>
<path fill="rgb(255,255,255)" fill-rule="evenodd" d="M457.86 18.00 C457.86 18.00 477.16 18.00 477.16 18.00 C478.21 18.00 479.07 18.90 479.07 20.00 C479.07 21.11 478.21 22.00 477.16 22.00 C477.16 22.00 457.86 22.00 457.86 22.00 C456.81 22.00 455.96 21.11 455.96 20.00 C455.96 18.90 456.81 18.00 457.86 18.00 Z"/>
</g>
<path opacity="0.80" fill="rgb(243,245,247)" fill-rule="evenodd" d="M467.81 125.73 C467.81 125.73 466.18 125.73 466.18 125.73 C466.18 125.73 35.07 125.73 35.07 125.73 C35.07 125.73 33.45 125.73 33.45 125.73 C32.55 125.73 31.82 125.00 31.82 124.10 C31.82 124.10 31.82 88.26 31.82 88.26 C31.82 87.37 32.55 86.64 33.45 86.64 C33.45 86.64 35.07 86.64 35.07 86.64 C35.07 86.64 466.18 86.64 466.18 86.64 C466.18 86.64 467.81 86.64 467.81 86.64 C468.71 86.64 469.44 87.37 469.44 88.26 C469.44 88.26 469.44 124.10 469.44 124.10 C469.44 125.00 468.71 125.73 467.81 125.73 Z"/>
<path opacity="0.80" fill="rgb(243,245,247)" fill-rule="evenodd" d="M468.22 368.63 C468.22 368.63 339.79 368.63 339.79 368.63 C339.12 368.63 338.57 368.23 338.57 367.73 C338.57 367.73 338.57 305.89 338.57 305.89 C338.57 305.39 339.12 304.99 339.79 304.99 C339.79 304.99 468.22 304.99 468.22 304.99 C468.89 304.99 469.44 305.39 469.44 305.89 C469.44 305.89 469.44 367.73 469.44 367.73 C469.44 368.23 468.89 368.63 468.22 368.63 Z M316.63 368.63 C316.63 368.63 186.21 368.63 186.21 368.63 C185.54 368.63 184.99 368.23 184.99 367.73 C184.99 367.73 184.99 305.89 184.99 305.89 C184.99 305.39 185.54 304.99 186.21 304.99 C186.21 304.99 316.63 304.99 316.63 304.99 C317.31 304.99 317.85 305.39 317.85 305.89 C317.85 305.89 317.85 367.73 317.85 367.73 C317.85 368.23 317.31 368.63 316.63 368.63 Z M161.83 368.63 C161.83 368.63 31.41 368.63 31.41 368.63 C30.73 368.63 30.19 368.23 30.19 367.73 C30.19 367.73 30.19 305.89 30.19 305.89 C30.19 305.39 30.73 304.99 31.41 304.99 C31.41 304.99 161.83 304.99 161.83 304.99 C162.50 304.99 163.05 305.39 163.05 305.89 C163.05 305.89 163.05 367.73 163.05 367.73 C163.05 368.23 162.50 368.63 161.83 368.63 Z"/>
<path opacity="0.80" fill="rgb(243,245,247)" fill-rule="evenodd" d="M468.18 280.55 C468.18 280.55 466.55 280.55 466.55 280.55 C466.55 280.55 33.45 280.55 33.45 280.55 C33.45 280.55 31.82 280.55 31.82 280.55 C30.92 280.55 30.19 279.82 30.19 278.92 C30.19 278.92 30.19 151.79 30.19 151.79 C30.19 150.89 30.92 150.16 31.82 150.16 C31.82 150.16 33.45 150.16 33.45 150.16 C33.45 150.16 466.55 150.16 466.55 150.16 C466.55 150.16 468.18 150.16 468.18 150.16 C469.08 150.16 469.81 150.89 469.81 151.79 C469.81 151.79 469.81 278.92 469.81 278.92 C469.81 279.82 469.08 280.55 468.18 280.55 Z"/>
</svg>