<?xml version="1.0" standalone="no"?>
<!DOCTYPE svg PUBLIC "-//W3C//DTD SVG 20010904//EN"
 "http://www.w3.org/TR/2001/REC-SVG-20010904/DTD/svg10.dtd">
<svg version="1.0" xmlns="http://www.w3.org/2000/svg"
 width="1568.000000pt" height="600.000000pt" viewBox="0 0 1568.000000 600.000000"
 preserveAspectRatio="xMidYMid meet">
<metadata>
Created by SGS Sandhu
Copyright @ OXO Solutions
</metadata>
<g transform="translate(0.000000,600.000000) scale(0.100000,-0.100000)"
fill="#178dc5" stroke="none">
<path d="M3195 5925 c-163 -23 -312 -61 -490 -125 -68 -24 -86 -32 -240 -105
-60 -28 -132 -57 -160 -64 -187 -49 -421 -143 -642 -257 -680 -352 -1179 -810
-1242 -1140 -25 -134 38 -263 167 -340 18 -10 32 -23 32 -30 0 -6 -23 -53 -51
-105 -47 -84 -104 -201 -169 -344 -73 -160 -201 -518 -240 -675 -68 -268 -110
-574 -110 -805 0 -105 19 -333 33 -405 24 -117 32 -154 49 -215 39 -140 76
-231 153 -378 131 -250 386 -514 645 -669 174 -103 338 -163 560 -205 107 -20
441 -22 550 -4 283 48 441 95 710 213 94 41 293 146 342 179 14 11 29 19 33
19 13 0 288 192 385 269 245 193 494 432 685 656 33 39 62 72 66 75 3 3 43 55
90 115 226 294 358 502 509 800 142 281 214 463 288 725 187 659 157 1253 -88
1755 -211 432 -596 791 -1034 965 -246 97 -559 133 -831 95z m107 -290 c220
-33 472 -112 668 -210 150 -74 198 -104 335 -205 11 -8 67 -62 125 -120 207
-208 330 -444 397 -759 26 -119 27 -141 27 -401 1 -180 -4 -303 -13 -355 -37
-226 -82 -413 -143 -590 -27 -79 -124 -305 -159 -371 -127 -243 -246 -432
-400 -635 -387 -513 -835 -905 -1366 -1197 -103 -57 -144 -77 -293 -145 -75
-33 -344 -124 -405 -137 -152 -31 -221 -41 -320 -48 -319 -21 -576 57 -778
238 -135 121 -217 300 -217 472 0 189 156 827 325 1333 86 256 222 620 283
755 10 25 36 86 57 135 59 142 304 636 395 795 170 299 208 350 285 378 89 32
350 42 463 18 92 -20 187 -70 217 -114 40 -58 34 -92 -34 -197 -292 -451 -543
-944 -787 -1545 -47 -118 -90 -226 -94 -240 -5 -14 -22 -63 -40 -110 -124
-336 -237 -692 -278 -875 -19 -86 -25 -115 -52 -265 -6 -36 -16 -84 -21 -107
-21 -94 -7 -160 39 -184 32 -17 183 -16 250 1 335 88 781 362 1162 715 393
364 684 741 891 1155 209 418 299 770 299 1168 0 495 -168 815 -530 1005 -161
85 -287 122 -465 137 -201 17 -491 -6 -625 -50 -175 -58 -428 -177 -555 -262
-170 -113 -384 -318 -491 -469 -29 -42 -87 -140 -128 -218 -41 -78 -86 -157
-100 -175 -69 -92 -214 -101 -480 -31 -261 69 -305 252 -125 520 26 39 59 84
74 100 14 17 42 49 61 71 42 51 229 218 333 298 112 86 339 234 476 310 430
239 802 367 1200 415 123 15 426 12 537 -4z"/>
<path d="M11333 5069 c-74 -36 -102 -101 -123 -284 -7 -55 -19 -138 -27 -185
-8 -47 -18 -107 -23 -135 -12 -70 -18 -98 -65 -300 -53 -225 -101 -409 -150
-570 -20 -66 -40 -133 -45 -150 -31 -113 -117 -378 -226 -700 -314 -928 -387
-1163 -443 -1433 -16 -78 -14 -270 4 -339 47 -181 168 -319 317 -359 84 -22
236 -18 305 8 209 78 361 236 393 409 22 121 -7 134 -150 69 -145 -65 -269
-68 -312 -7 -20 28 -23 43 -22 127 2 145 39 307 166 725 38 125 127 393 308
925 211 621 334 990 361 1085 4 17 12 46 18 65 5 19 19 69 30 110 45 162 84
332 111 484 15 89 13 227 -5 270 -19 45 -85 118 -140 156 -77 52 -206 65 -282
29z"/>
<path d="M12790 4606 c-102 -33 -202 -106 -245 -180 -35 -60 -51 -171 -35
-244 40 -184 192 -332 340 -332 116 0 225 46 311 131 97 98 139 202 139 344 0
83 -3 95 -29 136 -41 65 -129 126 -216 148 -52 14 -220 12 -265 -3z"/>
<path d="M6465 3340 c-157 -36 -277 -90 -445 -202 -325 -218 -569 -503 -754
-881 -148 -302 -206 -538 -206 -839 0 -241 46 -411 153 -568 70 -101 186 -191
293 -226 82 -26 304 -27 384 -1 258 84 518 334 686 661 39 77 62 99 49 49 -3
-16 -9 -98 -12 -185 -5 -141 -3 -163 16 -222 52 -162 154 -271 290 -312 69
-20 223 -20 292 0 177 53 346 195 400 336 10 27 22 75 25 105 6 45 4 59 -11
75 -10 11 -22 20 -27 20 -5 0 -50 -16 -101 -37 -81 -32 -103 -36 -184 -37
-106 -1 -131 11 -173 85 -33 59 -40 217 -15 341 32 162 133 448 255 723 92
209 141 317 186 414 30 62 54 115 54 116 0 1 43 92 95 201 109 225 110 230 40
300 -68 67 -161 104 -266 104 -86 0 -182 -74 -284 -219 -28 -39 -53 -71 -56
-71 -3 0 -27 27 -52 59 -147 190 -381 268 -632 211z m305 -326 c82 -24 149
-97 179 -194 27 -85 27 -88 -40 -292 -190 -575 -489 -1105 -782 -1384 -132
-126 -230 -171 -327 -151 -63 13 -95 39 -124 100 -40 85 -51 186 -37 351 22
256 62 433 146 651 159 413 412 737 680 873 124 62 207 75 305 46z"/>
<path d="M8575 3341 c-148 -43 -225 -112 -225 -202 0 -41 3 -46 51 -79 27 -19
62 -55 77 -80 25 -42 27 -52 26 -160 -1 -122 -20 -236 -75 -448 -36 -141 -144
-482 -206 -647 -24 -66 -53 -142 -63 -170 -18 -50 -223 -580 -241 -623 -41
-101 42 -227 197 -299 75 -35 188 -44 227 -19 40 27 105 168 212 461 74 202
217 510 336 725 232 419 561 836 723 915 96 47 158 28 306 -91 41 -33 48 -36
93 -31 92 11 174 97 229 239 17 43 21 78 22 178 1 114 -1 129 -24 175 -30 60
-91 124 -144 149 -81 38 -227 30 -326 -20 -169 -84 -396 -335 -587 -649 -37
-61 -146 -246 -153 -260 -29 -58 -134 -225 -142 -225 -5 0 -7 8 -4 18 3 9 14
58 26 109 11 51 36 139 56 195 96 277 124 394 124 523 0 75 -4 104 -20 138
-26 56 -93 123 -150 152 -93 47 -236 58 -345 26z"/>
<path d="M12405 3345 c-121 -27 -202 -74 -241 -141 -38 -64 -29 -98 41 -151
30 -23 62 -57 71 -75 23 -44 30 -171 14 -240 -31 -128 -129 -395 -216 -586
-13 -29 -24 -55 -24 -57 0 -4 -77 -186 -110 -260 -26 -58 -115 -289 -140 -365
-130 -389 -118 -591 45 -755 82 -83 172 -115 327 -115 169 0 280 43 391 153
125 124 176 294 103 343 -23 14 -29 13 -93 -13 -59 -24 -82 -28 -166 -28 -98
0 -99 0 -123 30 -62 77 -3 336 156 690 10 22 46 105 80 185 34 79 72 167 85
195 221 489 301 722 320 936 11 129 -18 185 -116 227 -95 41 -284 53 -404 27z"/>
<path d="M14765 3345 c-324 -54 -610 -208 -876 -475 -215 -215 -379 -479 -484
-780 -68 -193 -105 -405 -105 -599 0 -397 157 -676 458 -813 214 -98 581 -106
833 -19 80 27 216 94 282 139 207 140 318 296 317 449 0 47 -32 118 -58 132
-49 26 -71 15 -159 -78 -151 -161 -341 -269 -541 -310 -90 -19 -233 -14 -296
10 -106 39 -191 143 -232 284 -23 80 -23 287 1 409 18 97 64 267 97 361 139
399 431 785 693 916 158 78 315 78 391 -2 28 -30 29 -33 28 -132 -3 -191 -73
-320 -272 -499 l-52 -47 0 -64 c0 -77 15 -111 73 -165 54 -49 123 -72 219 -75
60 -1 83 3 129 24 147 69 317 325 364 550 20 95 20 294 -1 367 -53 188 -194
340 -369 397 -108 35 -296 43 -440 20z"/>
</g>
</svg>
